<svg version="1.2" xmlns="http://www.w3.org/2000/svg" viewBox="0 0 2458 512" width="2458" height="512">
	<style>
		tspan { white-space:pre } 
		.s0 { fill: #9b00ff } 
		.t1 { font-size: 289px;fill: #000000;font-weight: 700;font-family: "DejaVuSans-Bold", "DejaVu Sans" } 
	</style>
	<g id="Logo">
		<g id="on_white">
			<g id="woot-log">
			</g>
			<path class="s0" d="m177.1 35.1c-7.9 1.5-15.2 4-14.7 4.8 0.3 0.5-0.5 0.8-1.8 0.8-5.3 0-20.5 11.9-26.5 20.7-8.1 11.8-12.2 23.9-12 35 0.1 4.6 0.3 5.5 0.9 3.6 0.6-1.8 0.8-1 0.6 3-0.1 4.4 0.6 6.9 3.2 12.2 5.7 11.5 16.9 19.6 30.3 21.7 4.1 0.7 37.8 1.1 93 1.1h86.7l-23.2 23.3c-19.5 19.7-58.7 59.9-142.6 146.2-8.1 8.2-17.3 17.8-20.5 21.2-3.2 3.5-6.1 6.3-6.4 6.3-0.3 0-0.5-21.3-0.4-47.2 0.1-26-0.3-50.2-0.8-53.7-1.2-8.3-4.6-15.6-9.6-20.9-2.9-3.1-4.5-4.1-5.9-3.6-1.5 0.5-1.6 0.4-0.4-0.5 1.1-0.8 0-1.7-5.5-4.3-6.4-3-7.8-3.3-16.6-3.3-8.8 0-10.1 0.3-16.3 3.4-3.8 1.8-8.6 5.1-10.7 7.2-5.1 5.1-9.8 14.7-10.7 21.7-0.4 3.1-0.7 46.4-0.7 96.2 0 69.9 0.3 91.8 1.3 96 1.8 8 6.2 19.1 7.3 18.5 0.5-0.4 0.7 0 0.4 0.7-0.5 1.4 3.3 7.6 8 12.9 5 5.6 12.6 11.5 19.1 14.8 12.5 6.3 9.8 6.2 113.7 5.9l94.2-0.3 7.9-3.8c9.4-4.4 18.1-12.8 22-21 2.9-6.1 5.2-19.5 3.7-21-0.5-0.5-0.7-1.5-0.5-2.2 0.3-0.7 0-3.2-0.6-5.6-0.9-3.2-1.4-3.9-2.2-2.8-0.7 1.1-0.8 0.9-0.4-0.7 0.8-2.6-4.2-10.2-9.3-14.4-5.2-4.4-12.8-7.7-20.2-8.9-3.7-0.6-23.5-1.1-46.4-1.1h-40l94.5-95c52-52.3 94.7-95 95-95 0.3 0 0.4 35 0.2 77.7-0.2 47.9 0.1 81 0.7 86.1 1.2 9.3 5.1 19.3 8.7 22.1 1.3 1 2.1 2 1.9 2.3-0.9 0.8 7.5 6.9 13 9.4 28.9 13.3 67.4-8.9 82.4-47.4l2.6-6.7 0.3-138c0.2-102 0-139.4-0.8-143.5-2.2-10-7.6-18.7-15.9-25.3-1.9-1.5-4-2.6-4.8-2.3-0.7 0.3-1.5 0-1.9-0.6-0.5-0.7-0.2-0.8 0.7-0.3 1 0.5 1.1 0.5 0.4-0.3-0.5-0.6-3.9-2.1-7.5-3.4l-6.5-2.3-153-0.2c-84.7 0-155 0.3-157.4 0.8z"/>
		</g>
		<text id="" style="transform: matrix(1,0,0,1,764,284)" >
		</text>
		<text id="LeadFlowAI" style="transform: matrix(1,0,0,1,552,380)" >
			<tspan x="0" y="0" class="t1">L</tspan><tspan  y="0" class="t1">e</tspan><tspan  y="0" class="t1">a</tspan><tspan  y="0" class="t1">d</tspan><tspan  y="0" class="t1">F</tspan><tspan  y="0" class="t1">l</tspan><tspan  y="0" class="t1">o</tspan><tspan  y="0" class="t1">w</tspan><tspan  y="0" class="t1">A</tspan><tspan  y="0" class="t1">I
</tspan>
		</text>
	</g>
</svg>